<?xml version="1.0" encoding="utf-8"?>
<!-- Generator: Adobe Illustrator 16.2.1, SVG Export Plug-In . SVG Version: 6.00 Build 0)  -->
<!DOCTYPE svg PUBLIC "-//W3C//DTD SVG 1.1//EN" "http://www.w3.org/Graphics/SVG/1.1/DTD/svg11.dtd">
<svg version="1.1" id="Layer_1" xmlns="http://www.w3.org/2000/svg" xmlns:xlink="http://www.w3.org/1999/xlink" x="0px" y="0px"
	 width="960px" height="30px" viewBox="0 0 960 30" enable-background="new 0 0 960 30" xml:space="preserve">
<path fill="#333333" d="M951.656,20.88c-2.506-0.784-4.72,0.205-6.163,1.901c-1.701-0.478-3.423-0.893-5.158-1.255
	c-0.007-0.544-0.013-1.089-0.019-1.634c-0.021-1.915-2.567-3.176-3.954-1.629c-0.655,0.731-1.238,1.541-1.894,2.252
	c-3.128-0.439-6.284-0.735-9.442-0.906c-0.556-0.912-1.544-1.56-2.687-1.105c-0.14,0.055-0.26,0.115-0.385,0.174
	c-0.678-0.252-1.479-0.25-2.209,0.075c-0.342,0.152-0.644,0.346-0.926,0.558c-0.166-0.221-0.348-0.42-0.566-0.558
	c-1.203-0.752-2.447-0.279-3.158,0.668c-0.828,0.011-1.654,0.025-2.478,0.046c-0.036-0.088-0.076-0.173-0.111-0.263
	c-0.634-1.641-2.963-2.77-4.345-1.14c-0.116,0.195-0.253,0.364-0.401,0.519c-1.408-0.49-3.373,0.16-5.017,0.929
	c-0.239-0.444-0.468-0.869-0.505-0.922c-0.931-1.341-2.836-1.78-4.073-0.521c-0.438,0.445-0.951,1.052-1.503,1.638
	c-0.157-0.346-0.339-0.691-0.562-1.036c-1.046-1.612-3.136-1.496-4.203,0c-0.592,0.831-1.04,1.771-1.385,2.758
	c-0.889,0.129-1.776,0.263-2.663,0.401c0.045-0.82,0.163-1.613,0.387-2.317c0.816-2.564-2.881-3.95-4.241-1.779
	c-0.17,0.272-0.352,0.568-0.533,0.874c-1.365-0.307-2.672,0.884-2.782,2.281c-0.06,0.743-0.16,1.466-0.293,2.176
	c-1.405,0.247-2.81,0.5-4.215,0.757c-0.874-0.829-1.749-1.657-2.624-2.484c-0.919-0.871-2.867-0.901-3.44,0.441
	c-0.003,0.006-0.005,0.013-0.008,0.019c-0.765-0.003-1.547,0.313-1.979,0.984c-0.615,0.955-1.213,1.91-1.791,2.875
	c-0.715,0.134-1.43,0.268-2.145,0.4c-0.54-0.113-1.088-0.184-1.678-0.185c-0.708-1.085-1.499-2.061-2.49-3.012
	c-0.859-0.827-2.416-1.189-3.46-0.444c-0.24,0.119-0.43,0.222-0.592,0.319c-0.408-0.173-0.83-0.319-1.242-0.482
	c-0.797-0.316-2.119,0.019-2.652,0.697c-0.26,0.33-0.507,0.669-0.748,1.012c-0.068-0.11-0.122-0.225-0.197-0.332
	c-0.764-1.091-2.145-1.597-3.37-0.879c-0.88,0.516-1.334,1.167-1.724,1.891c-0.125-0.141-0.241-0.292-0.343-0.462
	c-0.739-0.886-1.965-0.763-2.897-0.372c-0.543,0.229-1.07,0.539-1.596,0.866c0.111-1.229,0.149-2.475,0.132-3.785
	c-0.023-1.712-1.976-2.944-3.505-2c-2.297,1.419-4.371,3.296-5.831,5.571c-0.098-0.013-0.194-0.024-0.292-0.038
	c-1.418-1.243-2.979-2.237-4.445-2.098c-0.025-0.475-0.037-0.951-0.006-1.436c0.093-1.417-2.112-1.674-2.456-0.331
	c-0.259,1.013-0.735,1.841-1.271,2.63c-2.099-1.48-4.528-2.458-6.881-3.565c0.044-0.24,0.095-0.474,0.124-0.724
	c-0.385-3.554-5.114-3.523-5.531,0c-0.043,0.364-0.132,0.709-0.232,1.049c-1.948-0.259-3.856-0.734-5.791-1.063
	c-0.015-0.327-0.03-0.654-0.046-0.98c-0.107-2.257-2.779-2.784-4.034-1.087c-0.656,0.887-1.284,1.715-1.752,2.637
	c-0.054-0.004-0.107-0.01-0.16-0.014c-0.937-0.151-1.873-0.302-2.81-0.451c-1.843-0.293-3.687-0.576-5.532-0.852
	c-0.168-0.625-0.329-1.252-0.417-1.903c-0.255-1.88-3.098-2.442-4.264-1.12c-0.601,0.682-1.111,1.395-1.589,2.127
	c-0.684-0.094-1.367-0.188-2.051-0.278c-3.622-1.981-7.755-2.981-11.899-2.966c-0.548-1.58-2.51-2.314-4.075-1.491
	c-0.355,0.187-0.65,0.408-0.914,0.648c-0.604-0.188-1.244-0.1-1.814,0.167c-0.736-0.239-1.613-0.192-2.243,0.228
	c-0.492,0.327-0.85,0.685-1.126,1.065c-0.109-0.008-0.22-0.015-0.329-0.023c-0.593-0.293-1.32-0.336-1.976-0.14
	c-0.75-0.053-1.499-0.112-2.249-0.16c-0.202-0.665-0.417-1.328-0.671-1.981c-0.545-1.403-2.023-2.185-3.442-1.393
	c-1.913,1.067-3.399,0.009-5.023,0.955c-0.482,0.281-0.919,0.686-1.334,1.115c-1.742-0.724-3.553-1.209-5.215-2.177
	c-0.625-0.364-1.339-0.405-1.974-0.204c-0.931-1.542-3.428-1.743-4.543,0.008c-1.527,2.399-3.726,1.412-6.419,1.814
	c-0.48,0.072-0.902,0.372-1.228,0.755c-0.157-0.089-0.322-0.16-0.498-0.204c-0.278-0.255-0.545-0.522-0.825-0.776
	c-0.435-0.879-0.871-1.79-1.221-2.679c-0.513-1.304-2.759-1.707-3.076,0c-0.116,0.616-0.215,1.247-0.267,1.881
	c-0.069,0.422-0.172,0.842-0.35,1.27c-0.147,0.005-0.298,0.021-0.454,0.049c-0.693,0.126-1.299,0.346-1.861,0.624
	c-0.202-0.742-0.408-1.481-0.64-2.205c-0.783-2.451-3.975-2.913-5.414-0.799c-0.741-2.665-5.086-2.52-5.055,0.597
	c0.002,0.156,0.003,0.311,0.005,0.467c-1.118,0.502-2.285,0.839-3.429,1.276c-0.112,0.028-0.225,0.049-0.337,0.079
	c-0.632-0.856-1.244-1.728-1.936-2.544c-0.706-0.834-2.062-0.882-2.957-0.379c-0.767,0.43-1.22,0.979-1.589,1.591
	c-0.292-0.002-0.585,0.031-0.869,0.117c-0.306-1.795-2.588-2.566-3.969-1.261c-1.003,0.948-1.943,1.637-2.885,2.142
	c-0.277-0.029-0.556-0.072-0.832-0.096c-1.633-0.146-3.257-0.318-4.876-0.532c-0.453-0.569-1.088-1.034-1.919-1.206
	c-0.681-0.142-1.546-0.001-2.071,0.51c-1.31-0.38-2.804-0.908-3.967-0.23c-1.87,1.09-3.418,2.854-5.31,4.015
	c-0.632,0.388-1.307,0.739-1.988,1.093c-0.443,0.121-0.888,0.241-1.328,0.365c-5.24,1.48-10.459,3.096-15.927,3.199
	c-1.878-1.687-3.875-3.261-5.566-5.295c-0.859-1.033-2.45-0.784-3.346,0c-0.765,0.671-1.582,1.262-2.413,1.845
	c-0.211-0.474-0.479-0.913-0.811-1.314c0.017-0.089,0.045-0.173,0.06-0.262c0.326-1.973-1.431-3.41-3.295-2.52
	c-1.267,0.605-2.143,1.606-2.915,2.715c-0.516-0.153-1.032-0.294-1.549-0.428c-0.285-0.288-0.566-0.59-0.835-0.927
	c-0.015-0.019-0.036-0.032-0.052-0.05c-0.022-0.79-0.044-1.578-0.066-2.368c-0.075-2.676-4.209-3.416-4.814-0.647
	c-0.217,0.99-0.499,1.861-0.837,2.707c-0.041,0.022-0.083,0.046-0.13,0.074c-0.361-0.039-0.723-0.066-1.084-0.098
	c-0.104-0.074-0.214-0.138-0.317-0.216c-0.775-0.583-1.743-0.426-2.511,0.044c-0.115-0.004-0.229,0.108-0.344,0.104
	c-0.798-0.489-1.93-0.907-2.765,0.093h-0.029c-0.251,0-0.509-0.304-0.782-0.37c-0.19-0.045-0.38-0.121-0.567-0.119
	c-0.563-0.849-1.392-1.253-2.221-1.233c-0.682-1.559-2.989-2.167-3.93-0.422c-0.324,0.602-0.89,1.686-1.541,2.617
	c-0.298,0.039-0.597,0.078-0.895,0.118c-0.165-0.169-0.36-0.333-0.617-0.488c-0.619-0.373-1.519-0.401-2.135,0
	c-0.236,0.153-0.457,0.313-0.672,0.477c-1.041,0.212-2.043,0.645-3.061,1.053c-0.171,0.03-0.341,0.06-0.511,0.091
	c-1.505-1.465-3.441-3.011-5.428-2.467c-1.274,0.349-2.015,1.178-2.663,2.26c0.729-1.216-2.661-1.272-3.599-1.397
	c-0.953-0.125-1.963,0.624-2.424,1.383c-0.707,1.165-1.206,1.873-1.712,2.31c-1.522,0.212-3.045,0.427-4.569,0.625
	c-3.076-0.045-6.246-0.307-9.295,0.09c-1.139,0.147-1.972,0.645-2.509,1.304c-3.779,0.409-7.563,0.79-11.354,1.138
	c-0.201-0.471-0.464-0.938-0.817-1.428c-1.327-1.841-4.201-1.717-4.909,0.638c-0.258,0.858-0.588,1.68-0.943,2.491
	c-0.981,0.067-1.962,0.135-2.941,0.195c-0.57-0.882-2.08-1.047-2.801-0.26c-0.134,0.146-0.256,0.292-0.38,0.438
	c-0.503,0.027-1.008,0.059-1.509,0.084c-0.146-0.354-0.346-0.625-0.585-0.817c-0.348-1.439-2.072-2.127-3.423-1.425
	c-0.018,0.009-0.03,0.02-0.048,0.029c-0.44-0.439-0.937-0.823-1.562-1.105c-0.84-0.379-1.792-0.393-2.527,0.06
	c-0.23-0.324-0.497-0.606-0.837-0.799c-1.843-1.047-2.758-0.049-4.83-0.497c-2.89-0.625-3.918,0.354-5.012,2.001
	c-1.548-0.669-3.106-1.313-4.631-2.037c-1.042-0.495-2.495-0.559-3.318,0.425c-2.726,3.261-5.157,2.259-8.501,0.262
	c-0.5-0.298-1.045-0.412-1.583-0.4c-0.368-2.676-4.018-4.241-5.565-1.429c-0.189,0.345-0.389,0.684-0.588,1.022
	c-0.322-0.131-0.671-0.24-1.053-0.321c-0.614-0.13-1.229-0.066-1.781,0.134c-1.224-0.413-2.705,0.034-3.47,1.217
	c-0.215,0.331-0.394,0.675-0.558,1.023c-1.39-0.071-2.779-0.143-4.169-0.213c-2.228-0.679-4.412-1.451-6.395-2.748
	c-1.122-0.733-2.415-0.321-3.364,0.431c-0.649,0.515-1.012,1.026-1.265,1.551c-0.471-0.097-0.941-0.193-1.414-0.285
	c-1.189-0.674-2.347-1.394-3.379-2.278c-0.865-0.741-1.816-0.916-2.689-0.656c-0.478-0.708-1.463-1.224-2.291-1.164
	c-0.68,0.024-1.356,0.088-2.027,0.193c-1.101,0.374-0.91,0.013-1.229-0.081c-1.293-0.376-2.417,0.27-3.157,1.278
	c-0.028,0.038-0.052,0.077-0.079,0.115c-0.041-0.024-0.077-0.056-0.12-0.077c-0.907-0.466-1.802-0.45-2.57-0.06
	c-0.041-0.188-0.09-0.373-0.123-0.564c-0.244-2.04-2.91-3.909-4.6-1.896c-0.311,0.37-0.708,0.923-1.135,1.431
	c-0.508-0.199-1.066-0.262-1.597-0.123c-1.565-1-3.242-1.89-4.992-2.677c-0.403-2.034-2.588-2.555-3.873-1.53
	c-4.956-1.699-10.245-2.596-15.159-2.651c-0.397-2.81-4.062-3.672-5.818-1.824c-0.173-0.029-0.347-0.048-0.52-0.048
	c-1.748,0-3.954,1.312-5.937,2.297c-0.558-0.767-1.109-1.541-1.723-2.27c-0.988-1.174-2.556-1.138-3.807-0.54
	c-1.448-0.682-3.417-0.251-4.314,1.197c-1.176-1.619-2.467-3.158-3.465-4.903c-1.191-2.083-4.304-2.033-5.508,0
	c-0.504,0.851-0.975,1.646-1.406,2.432c-1.315-0.264-2.827,0.354-3.651,1.512c-0.133,0.188-0.254,0.372-0.365,0.556
	c-2.895-0.702-4.86-0.438-7.167,1.169c-0.528-0.684-1.138-1.328-1.987-1.936c-0.845-0.604-1.802-0.633-2.652-0.312
	c-1.401-0.306-3.085,0.246-3.891,1.481c-0.447,0.685-2.124,0.856-2.917,1.646c-0.553,0.55-0.671,1.113-0.735,1.686
	c-0.126,0.018-0.25,0.041-0.372,0.065c-0.093-0.128-0.181-0.257-0.279-0.383c-1.196-1.542-2.814-1.958-4.391-1.136
	c-1.546-1.771-4.78-1.898-5.448,0.925c-0.623,0.205-1.201,0.615-1.633,1.306c-0.164,0.263-0.514,1.082-0.798,1.908
	c-0.676,0.42-1.21,1.091-1.445,1.846c-0.402,0.215-0.826,0.412-1.271,0.6c-0.305-0.835-0.612-1.669-0.97-2.49
	c-1.394-3.191-6.114-1.352-6.188,1.667c-0.034,1.388-0.111,2.732-0.153,4.064c-0.25,0.058-0.499,0.114-0.748,0.172
	c-0.12,0.011-0.244,0.034-0.368,0.061c-0.1-0.122-0.204-0.249-0.328-0.401c-0.967-1.196-3.181-1.103-4.166,0
	c-1.555,1.741-0.178,1.192-1.917,1.219c-0.137,0.002-0.263,0.02-0.39,0.035c-0.379-1.028-0.674-2.076-0.789-3.161
	c-0.271-2.573-3.801-4.084-5.257-1.417c-0.512,0.938-1.029,1.842-1.497,2.768c-1.148-0.892-2.695-0.854-3.846-0.169
	c-0.179-0.241-0.355-0.49-0.526-0.76c-1.025-1.619-3.141-1.827-4.519-0.938c-0.187-0.096-0.383-0.166-0.582-0.22
	c-0.578-2.053-1.14-4.105-1.119-6.227c0.024-2.485-3.356-3.314-4.613-1.242c-1.314,2.166-3.252,3.934-5.047,5.705
	c-0.491-0.394-1.058-0.611-1.644-0.66c-0.041-0.272-0.089-0.544-0.117-0.819c-0.356-3.512-4.69-4.015-6.001-0.808
	c-1.17,2.863-3.215,4.898-5.228,7.054c-0.186-0.182-0.371-0.364-0.557-0.546c-1.522-1.491-3.92-1.082-5.041,0.646
	c-0.351,0.54-0.605,1.114-0.851,1.69c-0.18-0.04-0.356-0.087-0.54-0.119c-0.737-0.124-1.456-0.077-2.088,0.173
	c-0.472-2.534-4.039-2.449-5.237-0.6c-1.077-0.651-2.77-0.556-3.555,0.425c-0.42,0.525-0.811,1.05-1.165,1.589
	c-0.279-0.033-0.557-0.071-0.835-0.109c-0.158-0.244-0.328-0.514-0.546-0.852c-0.64-0.992-1.953-1.707-3.155-1.276
	c-0.068,0.024-0.134,0.062-0.202,0.09c-1.206-1.589-2.682-2.966-3.721-4.736c-1.134-1.93-4.431-1.682-4.94,0.642
	c-0.099,0.453-0.23,0.889-0.372,1.319c-0.699-0.327-1.471-0.482-2.31-0.416c-0.567-0.728-1.03-1.878-1.487-2.477
	c-1.249-1.633-3.201-1.626-4.451,0c-0.007,0.009-0.011,0.019-0.018,0.027c-0.167-0.35-0.332-0.7-0.496-1.042
	c-0.406-0.844-1.385-1.235-2.26-1.289c-2.623-0.161-4.953-0.312-7.325,0.07c-0.409-0.075-0.809-0.157-1.224-0.227
	c-0.543-0.091-1.088-0.17-1.632-0.257c-0.572-0.359-1.209-0.58-1.965-0.663c-0.569-1.386-1.345-2.729-2.635-3.368
	c-1.765-0.875-3.412,0.234-3.635,2.075c-0.031,0.253-0.076,0.503-0.129,0.751c-0.994-0.123-1.99-0.227-2.986-0.336
	c-0.045-1.132-0.108-2.262-0.188-3.399c-0.177-2.539-3.684-3.107-4.48-0.603c-0.379,1.191-0.887,2.316-1.443,3.418
	c-0.2-0.017-0.4-0.038-0.601-0.053c-0.096-0.584-0.177-1.17-0.217-1.767c-0.121-1.771-1.496-2.59-2.811-2.414
	c-0.802-1.457-2.794-2.221-4.291-1.238c-2.373,1.561-4.816,2.933-7.471,3.967c-3.343,1.303-4.027,1.307-6.56-0.919
	c-2.14-1.879-4.506-1.856-6.738-0.974c-1.094-1.829-3.81-2.252-5.448-0.037c-1.042,1.409-2.241,2.679-3.444,3.947
	c-0.057-0.035-0.101-0.076-0.161-0.11c-0.513-0.292-1.042-0.42-1.556-0.426c-0.095-0.142-0.175-0.294-0.275-0.432
	c-1.953-2.665-5.661-1.629-6.013,1.62c-0.043,0.4-0.107,0.797-0.178,1.192c-1.612-1.011-3.286-1.937-4.967-2.967
	c-1.821-1.116-4.139-0.02-4.738,1.917c-0.47,1.519-1.249,2.79-2.119,4.014c-1.043-0.428-1.909-0.167-2.527,0.423
	c-0.212,0.063-0.423,0.126-0.636,0.188c-0.243-0.223-0.486-0.445-0.729-0.667c-1.728-1.582-4.447-0.471-4.537,1.869
	c-0.011,0.279-0.037,0.551-0.057,0.827c-0.027,0.04-0.058,0.074-0.083,0.117c-0.466,0.781-1.045,1.475-1.675,2.126
	c-1.48-0.192-2.96-0.384-4.443-0.557c-0.931-1.167-1.733-2.422-2.105-4.051c-0.43-1.884-3.639-2.025-3.959,0
	c-0.084,0.534-0.201,1.055-0.326,1.571c-0.913-0.654-1.891-1.178-2.963-1.334c-1.756-0.255-3.629,0.602-5.378,1.362
	c-0.37-1.102-0.766-2.185-1.41-3.18c-0.942-1.455-2.938-1.428-3.886,0c-0.569,0.858-1.117,1.726-1.646,2.606
	c-1.25-0.969-2.536-1.786-4.054-2.792c-1.013-0.671-2.424-0.38-3.259,0.418c-1.737,1.659-2.383,3.095-4.19,2.327
	c-2.814-1.198-4.807-2.111-6.746-4.576c-0.626-0.795-1.646-0.998-2.602-0.824c-0.109-0.298-0.218-0.597-0.337-0.893
	c-1.074-2.661-4.411-3.358-6.109-0.794c-4.6,6.946-12.295,6.592-19.326,3.61c-1.373-0.582-3.207-0.763-4.292,0.551
	c-0.455,0.551-0.862,1.114-1.252,1.685c-0.639-0.74-1.336-1.39-2.288-1.65c-2.253-0.616-4.033,1.328-5.992,0.966
	c-0.158-0.029-0.31-0.029-0.464-0.042c-1.082-0.808-2.634-1.138-3.997-0.649c-1.615-1.228-3.688-1.259-5.447,0.248
	c-3.619,3.1-4.373,3.004-7.789-0.322c-1.487-1.448-3.967-1.131-5.036,0.645c-0.645,1.071-1.378,2.077-2.109,3.084
	c-5.587-2.882-11.525-1.064-15.983,3.533c-4.419-1.713-8.863-1.726-12.759,0.817c-0.239-0.354-0.441-0.651-0.505-0.727
	c-1.273-1.52-4.007-0.664-4.432,1.164c-0.121,0.522-0.251,1.038-0.382,1.552c-2.854,0.378-5.707,0.745-8.566,1.038
	c-0.049-0.628-0.09-1.257-0.115-1.888c-0.061-1.557-2.009-1.757-2.635-0.492c-0.128-0.612-0.271-1.225-0.454-1.851
	C1.994,18.516,0.634,18.299,0,19.006V30h258.062c-0.005,0-0.008-0.053-0.014-0.078c0.328,0.025,0.655,0.078,0.982,0.078H960v-5.634
	C957.366,22.968,954.593,21.798,951.656,20.88z"/>
</svg>
